<svg xmlns="http://www.w3.org/2000/svg" xmlns:svg="http://www.w3.org/2000/svg" xmlns:xlink="http://www.w3.org/1999/xlink" id="svg1" width="300.001" height="150" version="1.1" viewBox="0 0 300.001 150"><defs id="defs1"><rect id="rect4" width="516.497" height="264.052" x="145.083" y="2.902"/><rect id="rect1" width="1351.83" height="254.462" x="147.216" y="106.693"/><rect id="rect4-7" width="1555.782" height="302.8" x="145.083" y="2.902"/><linearGradient id="linearGradient9" x1="113.173" x2="41.473" y1="54.253" y2="175.097" gradientTransform="matrix(0.6219927,0,0,0.6219927,943.00911,111.19373)" gradientUnits="userSpaceOnUse" xlink:href="#linearGradient6"/><linearGradient id="linearGradient6"><stop style="stop-color:#00b6b6;stop-opacity:.36728993" id="stop6" offset="0"/><stop style="stop-color:teal;stop-opacity:.96392864" id="stop7" offset="1"/></linearGradient><radialGradient id="radialGradient12" cx="68.222" cy="6.54" r="25.748" fx="68.222" fy="6.54" gradientUnits="userSpaceOnUse" spreadMethod="reflect" xlink:href="#linearGradient4"/><linearGradient id="linearGradient4"><stop style="stop-color:#00f9f9;stop-opacity:.68573123" id="stop3" offset="0"/><stop style="stop-color:#14ffff;stop-opacity:0" id="stop4" offset=".787"/></linearGradient><filter style="color-interpolation-filters:sRGB" id="filter13" width="1.06" height="1.041" x="-.03" y="-.02"><feGaussianBlur id="feGaussianBlur13" stdDeviation=".411"/></filter><radialGradient id="radialGradient21" cx="73.64" cy="116.186" r="1.058" fx="73.64" fy="116.186" gradientTransform="matrix(0.6219927,0,0,25.437311,943.12182,-2820.7565)" gradientUnits="userSpaceOnUse" xlink:href="#linearGradient2"/><linearGradient id="linearGradient2"><stop style="stop-color:#54ffff;stop-opacity:.67975581" id="stop1" offset="0"/><stop style="stop-color:#0aa;stop-opacity:0" id="stop2" offset="1"/></linearGradient></defs><g id="layer1" transform="translate(-940.76934,-102.70085)"><text id="text4-3" transform="matrix(0.13032728,0,0,0.13032728,1007.9967,159.1255)" xml:space="preserve" style="font-style:normal;font-variant:normal;font-weight:400;font-stretch:normal;font-size:229.333px;line-height:1.25;font-family:'Noto Sans';-inkscape-font-specification:'Noto Sans, Normal';font-variant-ligatures:normal;font-variant-caps:normal;font-variant-numeric:normal;font-variant-east-asian:normal;text-align:center;white-space:pre;shape-inside:url(#rect4-7);display:inline;fill:#000;fill-opacity:1"><tspan id="tspan1" x="184.179" y="211.567">Data.Rentgen</tspan></text><path id="path2-8" d="m 987.12321,127.97883 -33.65908,78.32615 33.50076,33.18181 -0.16351,-22.01513 -14.51739,-15.1538 14.51739,-33.66044 z m 3.45172,0.0836 0.31967,40.67858 14.5158,33.65926 -14.5158,15.155 -0.15983,22.01512 33.50013,-33.18184 z" style="fill:url(#linearGradient9);stroke:none;stroke-width:.62199px;stroke-linecap:butt;stroke-linejoin:miter;stroke-opacity:1"/><path style="display:inline;mix-blend-mode:overlay;fill:#0ee;fill-opacity:.35706;stroke:url(#radialGradient12);stroke-width:2.8;stroke-dasharray:none;paint-order:fill markers stroke;filter:url(#filter13)" id="path5" d="M 92.715165,-1.2823675 71.050234,6.5542899 92.635292,14.608338 70.501723,8.2140004 83.230351,27.417241 69.082415,9.2343278 68.09271,32.251776 67.334438,9.2255418 53.004433,27.265314 65.925458,8.1909983 43.728729,14.362515 65.39366,6.5258578 43.808602,-1.5281904 65.94217,4.8661474 53.213542,-14.337093 67.361478,3.8458199 68.351183,-19.171628 69.109456,3.8546059 83.439461,-14.185166 70.518435,4.8891494 Z" transform="matrix(0.62199264,0,0,0.62199264,946.62587,124.35339)"/><path style="display:inline;fill:#009f9f;fill-opacity:.497709;stroke:none;stroke-width:.418714px;stroke-linecap:butt;stroke-linejoin:miter;stroke-opacity:1" id="path6" d="m 988.89544,181.47566 -8.05618,18.43258 8.21993,8.68657 7.8923,-8.36877 z"/><rect style="display:inline;mix-blend-mode:overlay;fill:url(#radialGradient21);stroke:none;stroke-width:1.18331;stroke-dasharray:none;paint-order:fill markers stroke" id="rect6" width="1.316" height="53.823" x="988.268" y="107.779"/></g></svg>